# xmcd
#
# Track frame offsets:
#	150
#	16847
#	31446
#	45580
#	58158
#	73571
#	90328
#	103241
#	118429
#	135996
#	147058
#	170802
#	183374
#	194171
#	211193
#	224730
#
# Disc length: 3202 seconds
#
# Revision: 0
# Processed by: cddbd v1.5.2PL0 Copyright (c) Steve Scherf et al.
# Submitted via: EasyCDDAExtractor 16.0.9.1
#
DISCID=f50c8010
DTITLE=Fred Hoelzl - My Fire gets Blue
DYEAR=1900
DGENRE=
TTITLE0=Fireball
TTITLE1=Oh Mary
TTITLE2=You got to Move
TTITLE3=Like a Hobo Man
TTITLE4=All I want is You
TTITLE5=Help me to do my Thing
TTITLE6=Yes I`m Waitin
TTITLE7=There`s a Light
TTITLE8=Crazy Blues
TTITLE9=Trouble in the Night
TTITLE10=Lovesong
TTITLE11=Can I go Home with You
TTITLE12=On my Way
TTITLE13=My Fire gets Blue
TTITLE14=Can`t you see me Cryin
TTITLE15=All Troubles gonna leavin
EXTD=
EXTT0=
EXTT1=
EXTT2=
EXTT3=
EXTT4=
EXTT5=
EXTT6=
EXTT7=
EXTT8=
EXTT9=
EXTT10=
EXTT11=
EXTT12=
EXTT13=
EXTT14=
EXTT15=
PLAYORDER=
